# Blender v3.0.1 OBJ File: 'Props_1.blend'
# www.blender.org
mtllib Poste.luz.mtl
o BaseSemaforo_Cylinder.008
v -19.646870 0.575464 -0.602472
v -19.721258 8.526791 -0.602516
v -19.775835 0.575464 -0.602549
v -19.775835 3.062874 -0.602549
v -19.738007 0.575464 -0.693719
v -19.738007 3.062874 -0.693719
v -19.646791 0.575464 -0.731437
v -19.646791 3.062874 -0.731437
v -19.555622 0.575464 -0.693610
v -19.555622 3.062874 -0.693610
v -19.517904 0.575464 -0.602395
v -19.517904 3.062874 -0.602395
v -19.555731 0.575464 -0.511225
v -19.555731 3.062874 -0.511225
v -19.646946 0.575464 -0.473507
v -19.646946 3.062874 -0.473507
v -19.738115 0.575464 -0.511334
v -19.738115 3.062874 -0.511334
v -19.738670 3.062874 -0.602527
v -19.711742 3.062874 -0.667424
v -19.646814 3.062874 -0.694273
v -19.581917 3.062874 -0.667346
v -19.555069 3.062874 -0.602417
v -19.581995 3.062874 -0.537520
v -19.646925 3.062874 -0.510671
v -19.711821 3.062874 -0.537598
v -19.646870 8.526791 -0.602472
v -19.699440 8.526791 -0.655105
v -19.646824 8.526791 -0.676862
v -19.594236 8.526791 -0.655042
v -19.572479 8.526791 -0.602427
v -19.594299 8.526791 -0.549839
v -19.646914 8.526791 -0.528082
v -19.699503 8.526791 -0.549902
v -19.646915 5.381318 -0.526206
v -19.723135 5.381318 -0.602518
v -19.646824 5.381318 -0.678738
v -19.700766 5.381318 -0.656432
v -19.700830 5.381318 -0.548576
v -19.592909 5.381318 -0.656368
v -19.570602 5.381318 -0.602426
v -19.592974 5.381318 -0.548511
v -19.646915 5.641113 -0.526769
v -19.722572 5.641113 -0.602517
v -19.700367 5.641113 -0.656034
v -19.593307 5.641113 -0.655970
v -19.593370 5.641113 -0.548910
v -19.646824 5.641113 -0.678175
v -19.700432 5.641113 -0.548974
v -19.571165 5.641113 -0.602427
v -19.646803 5.641460 -0.712688
v -19.646803 5.381665 -0.713251
v -19.724852 5.641460 -0.524584
v -19.725248 5.381665 -0.524186
v -19.536654 5.641460 -0.602406
v -19.536089 5.381665 -0.602406
v -19.568583 5.381665 -0.524092
v -19.646936 5.381665 -0.491692
v -19.757648 5.381665 -0.602538
v -19.568489 5.381665 -0.680758
v -19.725155 5.381665 -0.680852
v -19.646935 5.641460 -0.492255
v -19.757086 5.641460 -0.602538
v -19.724758 5.641460 -0.680453
v -19.568888 5.641460 -0.680360
v -19.568981 5.641460 -0.524490
v -19.646914 8.426402 -0.527974
v -19.721367 8.426402 -0.602517
v -19.699516 8.426402 -0.655181
v -19.594160 8.426402 -0.655118
v -19.594223 8.426402 -0.549762
v -19.646824 8.426402 -0.676970
v -19.699579 8.426402 -0.549825
v -19.572371 8.426402 -0.602427
v -19.646824 8.271636 -0.677136
v -19.699696 8.271636 -0.549708
v -19.572205 8.271636 -0.602427
v -19.646914 8.271636 -0.527808
v -19.721533 8.271636 -0.602517
v -19.699633 8.271636 -0.655299
v -19.594042 8.271636 -0.655236
v -19.594105 8.271636 -0.549645
v -19.646933 8.288040 -0.497492
v -19.646933 8.410123 -0.497623
v -19.751850 8.288040 -0.602535
v -19.751719 8.410123 -0.602535
v -19.721056 8.288040 -0.676749
v -19.720964 8.410123 -0.676656
v -19.572592 8.288040 -0.676660
v -19.572685 8.410123 -0.676567
v -19.572681 8.288040 -0.528195
v -19.572775 8.410123 -0.528288
v -19.542021 8.410123 -0.602409
v -19.721052 8.410123 -0.528377
v -19.646807 8.410123 -0.707321
v -19.646807 8.288040 -0.707452
v -19.721146 8.288040 -0.528284
v -19.541889 8.288040 -0.602409
v -19.646923 8.346241 -0.515169
v -19.688307 9.030849 0.888610
v -19.687466 8.346241 -0.515193
v -19.687515 8.346241 -0.434106
v -19.675591 8.374909 -0.515186
v -19.675636 8.374522 -0.438796
v -19.646923 8.386785 -0.515169
v -19.646967 8.386236 -0.440724
v -19.618254 8.374909 -0.515152
v -19.618299 8.374522 -0.438761
v -19.606379 8.346241 -0.515145
v -19.606428 8.346241 -0.434058
v -19.618254 8.317573 -0.515152
v -19.618305 8.317960 -0.429368
v -19.646923 8.305697 -0.515169
v -19.646975 8.306246 -0.427440
v -19.675591 8.317573 -0.515186
v -19.675642 8.317960 -0.429403
v -19.687843 8.729308 0.113540
v -19.675964 8.756922 0.105843
v -19.647293 8.768359 0.102669
v -19.618626 8.756922 0.105877
v -19.606756 8.729308 0.113588
v -19.618635 8.701694 0.121285
v -19.647306 8.690256 0.124459
v -19.675972 8.701694 0.121251
v -19.688662 9.074917 1.479416
v -19.676430 9.059351 0.885541
v -19.647760 9.071157 0.884284
v -19.619093 9.059351 0.885575
v -19.607220 9.030849 0.888658
v -19.619097 9.002345 0.891728
v -19.647766 8.990540 0.892984
v -19.676434 9.002345 0.891693
v -19.648117 9.074917 1.479441
v -19.676794 9.100361 1.492635
v -19.648129 9.110899 1.498124
v -19.619457 9.100361 1.492669
v -19.607574 9.074917 1.479465
v -19.619442 9.049474 1.466247
v -19.648108 9.038935 1.460757
v -19.676779 9.049474 1.466213
v -19.619434 9.097834 1.455270
v -19.676758 9.046570 1.430820
v -19.648087 9.035954 1.425780
v -19.607553 9.072203 1.443069
v -19.648106 9.108451 1.460309
v -19.688639 9.072203 1.443020
v -19.619421 9.046570 1.430854
v -19.676771 9.097834 1.455235
v -19.606445 8.366526 -0.405058
v -19.618317 8.394772 -0.409921
v -19.675661 8.338280 -0.400243
v -19.646994 8.326580 -0.398215
v -19.687532 8.366526 -0.405107
v -19.618322 8.338280 -0.400209
v -19.675655 8.394772 -0.409955
v -19.646984 8.406472 -0.411949
v -19.687481 8.346241 -0.492026
v -19.675604 8.374799 -0.493360
v -19.646936 8.386628 -0.493899
v -19.618267 8.374799 -0.493326
v -19.606394 8.346241 -0.491977
v -19.618269 8.317683 -0.490642
v -19.646938 8.305854 -0.490104
v -19.675606 8.317683 -0.490677
v -19.390562 8.938460 2.116044
v -19.390562 9.240298 2.116044
v -19.906435 8.938460 2.115735
v -19.906435 9.240298 2.115735
v -19.390114 8.938460 1.368797
v -19.390114 9.240298 1.368797
v -19.905987 8.938460 1.368488
v -19.905987 9.240298 1.368488
v -19.390562 8.966936 2.116044
v -19.906435 8.966936 2.115735
v -19.905987 8.966936 1.368488
v -19.390114 8.966936 1.368797
v -19.906406 8.938460 2.070448
v -19.906406 9.240298 2.070448
v -19.390533 8.938460 2.070757
v -19.390533 9.240298 2.070757
v -19.390533 8.966936 2.070757
v -19.906406 8.966936 2.070448
v -19.829298 8.938013 2.307627
v -19.467928 8.938013 2.307843
v -19.467928 8.957960 2.307843
v -19.467928 9.149450 2.307843
v -19.829298 9.149450 2.307627
v -19.829298 8.957960 2.307627
vt 0.250000 1.000000
vt 0.375000 1.000000
vt 0.375000 1.000000
vt 0.250000 1.000000
vt 0.919706 0.080294
vt 0.750000 0.010000
vt 0.750000 0.250000
vt 0.990000 0.250000
vt 1.000000 0.500000
vt 1.000000 1.000000
vt 0.875000 1.000000
vt 0.875000 0.500000
vt 0.750000 1.000000
vt 0.750000 0.500000
vt 0.875000 1.000000
vt 0.750000 1.000000
vt 0.580294 0.080294
vt 0.510000 0.250000
vt 0.625000 1.000000
vt 0.625000 0.500000
vt 0.500000 1.000000
vt 0.500000 0.500000
vt 0.500000 1.000000
vt 0.580294 0.419706
vt 0.750000 0.490000
vt 0.375000 0.500000
vt 0.250000 0.500000
vt 0.000000 1.000000
vt 0.125000 1.000000
vt 0.125000 1.000000
vt 0.000000 1.000000
vt 0.125000 0.500000
vt 0.000000 0.500000
vt 0.919706 0.419706
vt 0.500000 1.000000
vt 0.625000 1.000000
vt 0.625000 1.000000
vt 0.500000 1.000000
vt 0.125000 1.000000
vt 0.250000 1.000000
vt 0.250000 1.000000
vt 0.125000 1.000000
vt 0.875000 1.000000
vt 1.000000 1.000000
vt 1.000000 1.000000
vt 0.875000 1.000000
vt 0.750000 1.000000
vt 0.750000 1.000000
vt 1.000000 1.000000
vt 0.625000 1.000000
vt 0.250000 0.250000
vt 0.490000 0.250000
vt 0.419706 0.419706
vt 0.250000 0.490000
vt 0.250000 0.010000
vt 0.419706 0.080294
vt 0.010000 0.250000
vt 0.080294 0.080294
vt 0.080294 0.419706
vt 0.000000 1.000000
vt 0.000000 1.000000
vt 0.375000 1.000000
vt 0.375000 1.000000
vt 0.500000 1.000000
vt 0.375000 1.000000
vt 0.250000 1.000000
vt 0.125000 1.000000
vt 0.000000 1.000000
vt 0.750000 1.000000
vt 0.625000 1.000000
vt 0.875000 1.000000
vt 1.000000 1.000000
vt 0.750000 1.000000
vt 0.625000 1.000000
vt 0.625000 1.000000
vt 0.750000 1.000000
vt 0.875000 1.000000
vt 0.750000 1.000000
vt 0.125000 1.000000
vt 0.000000 1.000000
vt 0.000000 1.000000
vt 0.125000 1.000000
vt 0.625000 1.000000
vt 0.375000 1.000000
vt 0.250000 1.000000
vt 0.250000 1.000000
vt 0.375000 1.000000
vt 0.125000 1.000000
vt 0.000000 1.000000
vt 0.500000 1.000000
vt 0.500000 1.000000
vt 0.375000 1.000000
vt 0.250000 1.000000
vt 0.500000 1.000000
vt 0.875000 1.000000
vt 1.000000 1.000000
vt 1.000000 1.000000
vt 0.875000 1.000000
vt 1.000000 1.000000
vt 0.875000 1.000000
vt 1.000000 1.000000
vt 1.000000 1.000000
vt 0.875000 1.000000
vt 0.625000 1.000000
vt 0.750000 1.000000
vt 0.125000 1.000000
vt 0.250000 1.000000
vt 0.250000 1.000000
vt 0.125000 1.000000
vt 0.000000 1.000000
vt 0.125000 1.000000
vt 0.500000 1.000000
vt 0.625000 1.000000
vt 0.625000 1.000000
vt 0.500000 1.000000
vt 0.250000 1.000000
vt 0.375000 1.000000
vt 0.375000 1.000000
vt 0.375000 1.000000
vt 0.500000 1.000000
vt 0.750000 1.000000
vt 0.000000 1.000000
vt 0.000000 1.000000
vt 0.750000 1.000000
vt 0.875000 1.000000
vt 1.000000 1.000000
vt 0.375000 1.000000
vt 0.500000 1.000000
vt 0.500000 1.000000
vt 0.375000 1.000000
vt 0.919706 0.080294
vt 0.750000 0.010000
vt 0.750000 0.250000
vt 0.990000 0.250000
vt 1.000000 0.642857
vt 1.000000 1.000000
vt 0.875000 1.000000
vt 0.875000 0.642857
vt 0.750000 1.000000
vt 0.750000 0.642857
vt 0.000000 1.000000
vt 0.125000 1.000000
vt 0.125000 1.000000
vt 0.000000 1.000000
vt 0.580294 0.080294
vt 0.510000 0.250000
vt 0.625000 1.000000
vt 0.625000 0.642857
vt 0.500000 1.000000
vt 0.500000 0.642857
vt 0.625000 1.000000
vt 0.625000 1.000000
vt 0.580294 0.419706
vt 0.750000 0.490000
vt 0.375000 1.000000
vt 0.375000 0.642857
vt 0.250000 1.000000
vt 0.250000 0.642857
vt 0.250000 1.000000
vt 0.250000 1.000000
vt 0.125000 1.000000
vt 0.125000 0.642857
vt 0.000000 1.000000
vt 0.000000 0.642857
vt 0.919706 0.419706
vt 0.875000 1.000000
vt 1.000000 1.000000
vt 1.000000 1.000000
vt 0.875000 1.000000
vt 0.750000 1.000000
vt 0.750000 1.000000
vt 0.500000 1.000000
vt 0.375000 1.000000
vt 0.250000 1.000000
vt 0.750000 1.000000
vt 0.875000 1.000000
vt 1.000000 1.000000
vt 0.375000 1.000000
vt 0.375000 1.000000
vt 0.250000 1.000000
vt 0.250000 1.000000
vt 0.125000 1.000000
vt 0.125000 1.000000
vt 0.500000 1.000000
vt 0.625000 1.000000
vt 0.625000 1.000000
vt 0.500000 1.000000
vt 0.125000 1.000000
vt 0.625000 1.000000
vt 0.000000 1.000000
vt 0.000000 1.000000
vt 0.000000 1.000000
vt 0.750000 1.000000
vt 0.750000 1.000000
vt 0.875000 1.000000
vt 0.875000 1.000000
vt 0.250000 0.250000
vt 0.490000 0.250000
vt 0.419706 0.419706
vt 0.250000 0.490000
vt 0.250000 0.010000
vt 0.419706 0.080294
vt 0.010000 0.250000
vt 0.080294 0.080294
vt 0.080294 0.419706
vt 1.000000 1.000000
vt 1.000000 1.000000
vt 0.125000 0.500000
vt 0.000000 0.500000
vt 0.250000 0.500000
vt 0.375000 0.500000
vt 0.500000 0.500000
vt 0.625000 0.500000
vt 0.750000 0.500000
vt 0.875000 0.500000
vt 1.000000 0.500000
vt 0.398585 1.000000
vt 0.625000 1.000000
vt 0.625000 1.000000
vt 0.398585 1.000000
vt 0.398585 0.265152
vt 0.625000 0.265152
vt 0.625000 0.500000
vt 0.398585 0.500000
vt 0.625000 0.750000
vt 0.398585 0.750000
vt 0.398585 0.984848
vt 0.625000 0.984848
vt 0.140152 0.500000
vt 0.375000 0.500000
vt 0.375000 0.750000
vt 0.140152 0.750000
vt 0.859848 0.500000
vt 0.875000 0.500000
vt 0.875000 0.750000
vt 0.859848 0.750000
vt 0.375000 0.984848
vt 0.375000 1.000000
vt 0.375000 0.265152
vt 0.375000 1.000000
vt 0.375000 0.250000
vt 0.398585 0.250000
vt 0.125000 0.500000
vt 0.125000 0.750000
vt 0.625000 0.250000
vt 0.398585 0.000000
vt 0.625000 0.000000
vt 0.625000 0.250000
vt 0.398585 0.250000
vt 0.375000 0.000000
vt 0.375000 0.250000
vt 0.875000 0.500000
vt 0.875000 0.750000
vt 0.125000 0.750000
vt 0.125000 0.500000
vn 0.0000 1.0000 0.0000
vn 0.0000 -1.0000 -0.0000
vn -0.9236 0.0000 -0.3832
vn -0.3821 0.0000 -0.9241
vn 0.3832 0.0000 -0.9237
vn 0.9241 0.0000 -0.3821
vn 0.9237 0.0000 0.3832
vn 0.3821 0.0000 0.9241
vn -0.3832 0.0000 0.9236
vn -0.9241 0.0000 0.3821
vn 0.9241 0.0010 -0.3821
vn -0.3832 0.0010 0.9237
vn -0.9237 0.0010 -0.3832
vn -0.3821 0.0010 -0.9241
vn 0.3832 0.0010 -0.9236
vn -0.9241 0.0010 0.3821
vn 0.3821 0.0010 0.9241
vn 0.9236 0.0010 0.3832
vn 0.9236 0.0062 0.3832
vn 0.3821 0.0062 0.9241
vn -0.9241 0.0062 0.3821
vn 0.3832 0.0062 -0.9236
vn -0.3821 0.0062 -0.9241
vn -0.9236 0.0062 -0.3832
vn -0.3832 0.0062 0.9236
vn 0.9241 0.0062 -0.3821
vn -0.0042 0.9999 0.0100
vn -0.0042 -0.9999 -0.0101
vn 0.0101 0.9999 -0.0042
vn 0.0042 -0.9999 -0.0101
vn -0.0042 0.9999 -0.0101
vn -0.0101 -0.9999 0.0042
vn -0.0101 0.9999 -0.0042
vn 0.0042 -0.9999 0.0101
vn 0.9236 0.0020 0.3832
vn 0.3821 0.0020 0.9241
vn -0.9241 0.0020 0.3821
vn 0.3832 0.0020 -0.9236
vn -0.3821 0.0020 -0.9241
vn -0.9236 0.0020 -0.3832
vn -0.3832 0.0020 0.9236
vn 0.9241 0.0020 -0.3821
vn -0.0101 -0.9999 -0.0042
vn 0.0042 0.9999 0.0101
vn -0.0042 -0.9999 0.0101
vn 0.0101 0.9999 0.0042
vn 0.0101 -0.9999 -0.0042
vn 0.0042 0.9999 -0.0100
vn 0.0101 -0.9999 0.0042
vn -0.0101 0.9999 0.0042
vn -0.4668 -0.8629 -0.1937
vn 0.1924 0.8648 -0.4637
vn -0.1937 -0.8629 0.4668
vn -0.4640 0.8648 0.1919
vn 0.4670 -0.8629 -0.1931
vn 0.1919 0.8648 0.4640
vn 0.4668 -0.8629 0.1937
vn 0.4637 0.8648 0.1924
vn 0.9241 0.0004 -0.3821
vn -0.3832 0.0004 0.9236
vn -0.9236 0.0004 -0.3832
vn -0.3821 0.0004 -0.9241
vn 0.3832 0.0004 -0.9236
vn -0.9241 0.0004 0.3821
vn 0.3821 0.0004 0.9241
vn 0.9236 0.0004 0.3832
vn 0.3832 0.0010 -0.9237
vn -0.9236 0.0010 -0.3832
vn -0.3832 0.0010 0.9236
vn -0.1919 0.8648 -0.4640
vn -0.1931 -0.8629 -0.4670
vn -0.4637 0.8648 -0.1924
vn 0.1937 -0.8629 -0.4668
vn -0.1924 0.8648 0.4637
vn -0.4670 -0.8629 0.1931
vn 0.4640 0.8648 -0.1919
vn 0.1931 -0.8629 0.4670
vn 0.9124 -0.3353 0.2347
vn 0.0006 0.0000 -1.0000
vn -0.9227 0.3856 0.0004
vn -0.3796 0.9251 0.0055
vn -0.9127 -0.3353 0.2336
vn 0.3796 0.9251 0.0060
vn 0.9227 0.3856 0.0015
vn 0.9126 0.3351 -0.2343
vn 0.9227 -0.3854 0.0014
vn 0.3800 -0.9250 0.0052
vn -0.3580 -0.7663 0.5334
vn -0.3800 -0.9250 0.0048
vn -0.9227 -0.3855 0.0003
vn -0.9211 0.3628 -0.1415
vn -0.3761 0.8639 -0.3351
vn 0.9210 -0.3627 0.1419
vn 0.3759 -0.8631 0.3372
vn -0.3568 0.7642 -0.5372
vn 0.3573 -0.7664 0.5338
vn -0.9123 0.3351 -0.2354
vn 0.3575 0.7642 -0.5368
vn 0.3323 -0.9399 0.0788
vn -0.3324 -0.9399 0.0784
vn 0.9004 0.4341 -0.0303
vn -0.3763 -0.8631 0.3368
vn 0.9213 0.3627 -0.1404
vn 0.3765 0.8639 -0.3346
vn -0.9212 -0.3627 0.1408
vn 0.9133 -0.4060 0.0323
vn -0.8997 -0.4352 0.0335
vn 0.3355 0.9400 -0.0620
vn -0.3354 0.9400 -0.0624
vn -0.0005 -0.4608 0.8875
vn -0.9004 0.4340 -0.0314
vn -0.9136 0.4056 -0.0294
vn -0.3600 0.9309 -0.0618
vn 0.3600 0.9309 -0.0614
vn -0.9133 -0.4060 0.0312
vn 0.8996 -0.4353 0.0346
vn 0.9136 0.4056 -0.0283
vn -0.3587 -0.9302 0.0776
vn 0.3586 -0.9302 0.0780
vn 0.3504 0.7664 -0.5383
vn -0.9088 0.3414 -0.2399
vn 0.3504 -0.7685 0.5353
vn -0.3498 0.7664 -0.5388
vn -0.3511 -0.7685 0.5349
vn 0.9091 0.3414 -0.2387
vn -0.9092 -0.3416 0.2380
vn 0.9089 -0.3416 0.2391
vn -0.9236 -0.3833 0.0003
vn -0.3821 -0.9241 0.0047
vn 0.3821 -0.9241 0.0052
vn 0.9236 -0.3833 0.0015
vn 0.9236 0.3833 0.0015
vn 0.3820 0.9242 0.0059
vn -0.3820 0.9241 0.0055
vn -0.9236 0.3833 0.0004
vn 0.9274 0.0000 0.3741
vn -1.0000 0.0000 -0.0006
vn 1.0000 0.0000 0.0006
vn -0.0006 0.0000 1.0000
vn -0.9278 0.0000 0.3730
vn -0.0003 0.9038 0.4280
vn 0.0000 -1.0000 -0.0023
usemtl Semaforo
s off
f 16/1/1 14/2/1 24/3/1 25/4/1
f 9/5/2 11/6/2 1/7/2 7/8/2
f 3/9/3 4/10/3 6/11/3 5/12/3
f 5/12/4 6/11/4 8/13/4 7/14/4
f 8/13/1 6/11/1 20/15/1 21/16/1
f 13/17/2 15/18/2 1/7/2 11/6/2
f 7/14/5 8/13/5 10/19/5 9/20/5
f 9/20/6 10/19/6 12/21/6 11/22/6
f 14/2/1 12/21/1 23/23/1 24/3/1
f 17/24/2 3/25/2 1/7/2 15/18/2
f 11/22/7 12/21/7 14/2/7 13/26/7
f 13/26/8 14/2/8 16/1/8 15/27/8
f 4/28/1 18/29/1 26/30/1 19/31/1
f 15/27/9 16/1/9 18/29/9 17/32/9
f 17/32/10 18/29/10 4/28/10 3/33/10
f 5/34/2 7/8/2 1/7/2 3/25/2
f 74/35/11 70/36/11 30/37/11 31/38/11
f 73/39/12 67/40/12 33/41/12 34/42/12
f 69/43/13 68/44/13 2/45/13 28/46/13
f 72/47/14 69/43/14 28/46/14 29/48/14
f 6/11/1 4/10/1 19/49/1 20/15/1
f 10/19/1 8/13/1 21/16/1 22/50/1
f 18/29/1 16/1/1 25/4/1 26/30/1
f 12/21/1 10/19/1 22/50/1 23/23/1
f 27/51/1 29/52/1 28/53/1 2/54/1
f 27/51/1 31/55/1 30/56/1 29/52/1
f 27/51/1 33/57/1 32/58/1 31/55/1
f 27/51/1 2/54/1 34/59/1 33/57/1
f 70/36/15 72/47/15 29/48/15 30/37/15
f 68/60/16 73/39/16 34/42/16 2/61/16
f 67/40/17 71/62/17 32/63/17 33/41/17
f 71/62/18 74/35/18 31/38/18 32/63/18
f 24/3/19 23/23/19 41/64/19 42/65/19
f 25/4/20 24/3/20 42/65/20 35/66/20
f 19/31/21 26/30/21 39/67/21 36/68/21
f 22/50/22 21/16/22 37/69/22 40/70/22
f 21/16/23 20/15/23 38/71/23 37/69/23
f 20/15/24 19/49/24 36/72/24 38/71/24
f 26/30/25 25/4/25 35/66/25 39/67/25
f 23/23/26 22/50/26 40/70/26 41/64/26
f 48/73/27 46/74/27 65/75/27 51/76/27
f 37/69/28 38/71/28 61/77/28 52/78/28
f 49/79/29 44/80/29 63/81/29 53/82/29
f 40/70/30 37/69/30 52/78/30 60/83/30
f 47/84/31 43/85/31 62/86/31 66/87/31
f 36/68/32 39/67/32 54/88/32 59/89/32
f 50/90/33 47/84/33 66/87/33 55/91/33
f 35/66/34 42/65/34 57/92/34 58/93/34
f 57/92/35 56/94/35 55/91/35 66/87/35
f 58/93/36 57/92/36 66/87/36 62/86/36
f 59/89/37 54/88/37 53/82/37 63/81/37
f 60/83/38 52/78/38 51/76/38 65/75/38
f 52/78/39 61/77/39 64/95/39 51/76/39
f 61/77/40 59/96/40 63/97/40 64/95/40
f 54/88/41 58/93/41 62/86/41 53/82/41
f 56/94/42 60/83/42 65/75/42 55/91/42
f 38/71/43 36/72/43 59/96/43 61/77/43
f 45/98/44 48/73/44 51/76/44 64/95/44
f 39/67/45 35/66/45 58/93/45 54/88/45
f 44/99/46 45/98/46 64/95/46 63/97/46
f 41/64/47 40/70/47 60/83/47 56/94/47
f 43/85/48 49/79/48 53/82/48 62/86/48
f 42/65/49 41/64/49 56/94/49 57/92/49
f 46/74/50 50/90/50 55/91/50 65/75/50
f 80/100/51 79/101/51 85/102/51 87/103/51
f 72/47/52 70/36/52 90/104/52 95/105/52
f 76/106/53 78/107/53 83/108/53 97/109/53
f 73/39/54 68/60/54 86/110/54 94/111/54
f 77/112/55 81/113/55 89/114/55 98/115/55
f 71/62/56 67/40/56 84/116/56 92/117/56
f 82/118/57 77/112/57 98/115/57 91/119/57
f 74/35/58 71/62/58 92/117/58 93/120/58
f 50/90/59 46/74/59 81/113/59 77/112/59
f 49/79/60 43/85/60 78/107/60 76/106/60
f 45/98/61 44/99/61 79/101/61 80/100/61
f 48/73/62 45/98/62 80/100/62 75/121/62
f 46/74/63 48/73/63 75/121/63 81/113/63
f 44/80/64 49/79/64 76/106/64 79/122/64
f 43/85/65 47/84/65 82/118/65 78/107/65
f 47/84/66 50/90/66 77/112/66 82/118/66
f 91/119/18 98/115/18 93/120/18 92/117/18
f 83/108/17 91/119/17 92/117/17 84/116/17
f 85/123/16 97/109/16 94/111/16 86/110/16
f 89/114/67 96/124/67 95/105/67 90/104/67
f 96/124/14 87/103/14 88/125/14 95/105/14
f 87/103/68 85/102/68 86/126/68 88/125/68
f 97/109/69 83/108/69 84/116/69 94/111/69
f 98/115/11 89/114/11 90/104/11 93/120/11
f 69/43/70 72/47/70 95/105/70 88/125/70
f 75/121/71 80/100/71 87/103/71 96/124/71
f 68/44/72 69/43/72 88/125/72 86/126/72
f 81/113/73 75/121/73 96/124/73 89/114/73
f 67/40/74 73/39/74 94/111/74 84/116/74
f 79/122/75 76/106/75 97/109/75 85/123/75
f 70/36/76 74/35/76 93/120/76 90/104/76
f 78/107/77 82/118/77 91/119/77 83/108/77
f 154/127/78 149/128/78 121/129/78 122/130/78
f 107/131/79 109/132/79 99/133/79 105/134/79
f 157/135/80 102/136/80 104/137/80 158/138/80
f 158/138/81 104/137/81 106/139/81 159/140/81
f 153/141/82 151/142/82 124/143/82 117/144/82
f 111/145/79 113/146/79 99/133/79 109/132/79
f 159/140/83 106/139/83 108/147/83 160/148/83
f 160/148/84 108/147/84 110/149/84 161/150/84
f 149/128/85 150/151/85 120/152/85 121/129/85
f 115/153/79 101/154/79 99/133/79 113/146/79
f 161/150/86 110/149/86 112/155/86 162/156/86
f 162/156/87 112/155/87 114/157/87 163/158/87
f 151/142/88 152/159/88 123/160/88 124/143/88
f 163/158/89 114/157/89 116/161/89 164/162/89
f 164/162/90 116/161/90 102/163/90 157/164/90
f 103/165/79 105/134/79 99/133/79 101/154/79
f 118/166/91 117/167/91 100/168/91 126/169/91
f 119/170/92 118/166/92 126/169/92 127/171/92
f 122/130/93 121/129/93 129/172/93 130/173/93
f 123/160/94 122/130/94 130/173/94 131/174/94
f 156/175/95 155/176/95 118/166/95 119/170/95
f 152/159/96 154/127/96 122/130/96 123/160/96
f 155/176/97 153/177/97 117/167/97 118/166/97
f 150/151/98 156/175/98 119/170/98 120/152/98
f 147/178/99 138/179/99 139/180/99 143/181/99
f 142/182/100 143/181/100 139/180/100 140/183/100
f 144/184/101 141/185/101 136/186/101 137/187/101
f 124/143/102 123/160/102 131/174/102 132/188/102
f 121/129/103 120/152/103 128/189/103 129/172/103
f 120/152/104 119/170/104 127/171/104 128/189/104
f 117/144/105 124/143/105 132/188/105 100/190/105
f 144/184/106 147/178/106 130/173/106 129/172/106
f 142/182/107 140/183/107 125/191/107 146/192/107
f 145/193/108 135/194/108 136/186/108 141/185/108
f 148/195/109 134/196/109 135/194/109 145/193/109
f 133/197/110 135/198/110 134/199/110 125/200/110
f 133/197/110 137/201/110 136/202/110 135/198/110
f 133/197/110 139/203/110 138/204/110 137/201/110
f 133/197/110 125/200/110 140/205/110 139/203/110
f 146/206/111 125/207/111 134/196/111 148/195/111
f 100/168/112 146/206/112 148/195/112 126/169/112
f 126/169/113 148/195/113 145/193/113 127/171/113
f 127/171/114 145/193/114 141/185/114 128/189/114
f 132/188/115 142/182/115 146/192/115 100/190/115
f 137/187/116 138/179/116 147/178/116 144/184/116
f 129/172/117 128/189/117 141/185/117 144/184/117
f 132/188/118 131/174/118 143/181/118 142/182/118
f 130/173/119 147/178/119 143/181/119 131/174/119
f 108/147/120 106/139/120 156/175/120 150/151/120
f 104/137/121 102/136/121 153/177/121 155/176/121
f 114/157/122 112/155/122 154/127/122 152/159/122
f 106/139/123 104/137/123 155/176/123 156/175/123
f 116/161/124 114/157/124 152/159/124 151/142/124
f 110/149/125 108/147/125 150/151/125 149/128/125
f 102/163/126 116/161/126 151/142/126 153/141/126
f 112/155/127 110/149/127 149/128/127 154/127/127
f 115/208/128 164/162/128 157/164/128 101/209/128
f 113/210/129 163/158/129 164/162/129 115/208/129
f 111/211/130 162/156/130 163/158/130 113/210/130
f 109/212/131 161/150/131 162/156/131 111/211/131
f 107/213/132 160/148/132 161/150/132 109/212/132
f 105/214/133 159/140/133 160/148/133 107/213/133
f 103/215/134 158/138/134 159/140/134 105/214/134
f 101/216/135 157/135/135 158/138/135 103/215/135
f 173/217/136 166/218/136 186/219/136 185/220/136
f 182/221/137 178/222/137 172/223/137 175/224/137
f 175/224/79 172/223/79 170/225/79 176/226/79
f 181/227/138 180/228/138 166/218/138 173/217/138
f 177/229/2 171/230/2 169/231/2 179/232/2
f 178/233/1 168/234/1 166/235/1 180/236/1
f 179/237/138 181/227/138 173/217/138 165/238/138
f 171/230/79 175/224/79 176/226/79 169/231/79
f 177/239/137 182/221/137 175/224/137 171/230/137
f 165/238/136 173/217/136 185/220/136 184/240/136
f 167/241/137 174/242/137 182/221/137 177/239/137
f 169/231/138 176/226/138 181/227/138 179/237/138
f 172/223/1 178/233/1 180/236/1 170/225/1
f 167/243/2 177/229/2 179/232/2 165/244/2
f 176/226/138 170/225/138 180/228/138 181/227/138
f 174/242/137 168/245/137 178/222/137 182/221/137
f 185/246/139 186/247/139 187/248/139 188/249/139
f 184/250/139 185/246/139 188/249/139 183/251/139
f 168/245/140 174/242/140 188/249/140 187/248/140
f 166/235/141 168/234/141 187/252/141 186/253/141
f 167/243/142 165/244/142 184/254/142 183/255/142
f 174/242/140 167/241/140 183/251/140 188/249/140
