# Blender v3.3.0 Alpha OBJ File: 'alas.blend'
# www.blender.org
mtllib PortalPegasofondo.mtl
o Cylinder_Cylinder.001
v 0.134714 1.024510 -1.946074
v 0.265214 1.024510 -1.946074
v 0.134715 0.279780 -1.797938
v 0.265215 0.279780 -1.797938
v 0.134715 -0.351572 -1.376082
v 0.265215 -0.351572 -1.376082
v 0.134715 -0.773428 -0.744730
v 0.265215 -0.773428 -0.744730
v 0.134715 -0.921564 0.000000
v 0.265215 -0.921564 0.000000
v 0.134715 -0.773428 0.744730
v 0.265215 -0.773428 0.744730
v 0.134715 -0.351572 1.376082
v 0.265215 -0.351572 1.376082
v 0.134715 0.279779 1.797938
v 0.265215 0.279779 1.797938
v 0.134715 1.024510 1.946074
v 0.265215 1.024510 1.946074
v 0.134715 1.769240 1.797938
v 0.265215 1.769240 1.797938
v 0.134715 2.400592 1.376082
v 0.265215 2.400592 1.376082
v 0.134714 2.822447 0.744730
v 0.265214 2.822447 0.744730
v 0.134714 2.970583 -0.000000
v 0.265214 2.970583 -0.000000
v 0.134714 2.822447 -0.744731
v 0.265214 2.822447 -0.744731
v 0.134714 2.400592 -1.376082
v 0.265214 2.400592 -1.376082
v 0.134714 1.769240 -1.797938
v 0.265214 1.769240 -1.797938
v 0.265215 0.454222 -1.289429
v 0.265215 -0.007552 -0.427494
v 0.265215 -0.290509 0.508509
v 0.265214 1.427555 -0.973037
v 0.265215 1.024510 0.000000
v 0.265215 0.621465 0.973037
v 0.265214 2.339529 -0.508509
v 0.265215 2.056571 0.427494
v 0.265215 1.594798 1.289429
v 0.134715 -0.264919 -0.570288
v 0.134715 0.597016 -1.032061
v 0.134714 1.533019 -1.315019
v 0.134715 0.051473 0.403045
v 0.134715 1.024510 -0.000000
v 0.134714 1.997547 -0.403045
v 0.134715 0.516001 1.315019
v 0.134715 1.452004 1.032062
v 0.134715 2.313939 0.570288
vt 1.000000 0.500000
vt 1.000000 1.000000
vt 0.937500 1.000000
vt 0.937500 0.500000
vt 0.875000 1.000000
vt 0.875000 0.500000
vt 0.812500 1.000000
vt 0.812500 0.500000
vt 0.750000 1.000000
vt 0.750000 0.500000
vt 0.687500 1.000000
vt 0.687500 0.500000
vt 0.625000 1.000000
vt 0.625000 0.500000
vt 0.562500 1.000000
vt 0.562500 0.500000
vt 0.500000 1.000000
vt 0.500000 0.500000
vt 0.437500 1.000000
vt 0.437500 0.500000
vt 0.375000 1.000000
vt 0.375000 0.500000
vt 0.312500 1.000000
vt 0.312500 0.500000
vt 0.250000 1.000000
vt 0.250000 0.500000
vt 0.187500 1.000000
vt 0.187500 0.500000
vt 0.125000 1.000000
vt 0.125000 0.500000
vt 0.812500 1.000000
vt 0.062500 1.000000
vt 0.062500 0.500000
vt 0.000000 1.000000
vt 0.000000 0.500000
vt 0.348214 1.000000
vt 0.437500 1.000000
vt 0.312500 1.000000
vt 0.741071 1.000000
vt 0.437500 1.000000
vt 0.526786 1.000000
vt 0.383929 1.000000
vt 0.687500 1.000000
vt 0.491071 1.000000
vt 0.562500 1.000000
vt 0.437500 1.000000
vt 0.687500 0.500000
vt 0.616071 0.500000
vt 0.562500 0.500000
vt 0.651786 0.500000
vt 0.562500 0.500000
vt 0.508929 0.500000
vt 0.562500 0.500000
vt 0.473214 0.500000
vt 0.437500 0.500000
vt 0.187500 0.500000
vt 0.258929 0.500000
vt 0.312500 0.500000
vn 0.0000 -0.1951 -0.9808
vn 0.0000 -0.5556 -0.8315
vn 0.0000 -0.8315 -0.5556
vn -0.0000 -0.9808 -0.1951
vn 0.0000 -0.9808 0.1951
vn 0.0000 -0.8315 0.5556
vn 0.0000 -0.5556 0.8315
vn -0.0000 -0.1951 0.9808
vn 0.0000 0.1951 0.9808
vn 0.0000 0.5556 0.8315
vn 0.0000 0.8315 0.5556
vn 0.0000 0.9808 0.1951
vn -0.0000 0.9808 -0.1951
vn 0.0000 0.8315 -0.5556
vn 1.0000 0.0000 -0.0000
vn 0.0000 0.5556 -0.8315
vn 0.0000 0.1951 -0.9808
vn -1.0000 -0.0000 0.0000
usemtl None
s off
f 1/1/1 2/2/1 4/3/1 3/4/1
f 3/4/2 4/3/2 6/5/2 5/6/2
f 5/6/3 6/5/3 8/7/3 7/8/3
f 7/8/4 8/7/4 10/9/4 9/10/4
f 9/10/5 10/9/5 12/11/5 11/12/5
f 11/12/6 12/11/6 14/13/6 13/14/6
f 13/14/7 14/13/7 16/15/7 15/16/7
f 15/16/8 16/15/8 18/17/8 17/18/8
f 17/18/9 18/17/9 20/19/9 19/20/9
f 19/20/10 20/19/10 22/21/10 21/22/10
f 21/22/11 22/21/11 24/23/11 23/24/11
f 23/24/12 24/23/12 26/25/12 25/26/12
f 25/26/13 26/25/13 28/27/13 27/28/13
f 27/28/14 28/27/14 30/29/14 29/30/14
f 4/3/15 2/2/15 33/31/15 6/5/15
f 29/30/16 30/29/16 32/32/16 31/33/16
f 31/33/17 32/32/17 2/34/17 1/35/17
f 2/34/15 32/32/15 36/36/15 33/37/15
f 32/32/15 30/29/15 39/38/15 36/36/15
f 30/29/15 28/27/15 26/25/15 39/38/15
f 6/5/15 33/31/15 34/39/15 8/7/15
f 33/37/15 36/36/15 37/40/15 34/41/15
f 36/36/15 39/38/15 40/42/15 37/40/15
f 39/38/15 26/25/15 24/23/15 40/42/15
f 8/7/15 34/39/15 35/43/15 10/9/15
f 34/41/15 37/40/15 38/44/15 35/45/15
f 37/40/15 40/42/15 41/46/15 38/44/15
f 40/42/15 24/23/15 22/21/15 41/46/15
f 10/9/15 35/43/15 14/13/15 12/11/15
f 35/45/15 38/44/15 16/15/15 14/13/15
f 38/44/15 41/46/15 18/17/15 16/15/15
f 41/46/15 22/21/15 20/19/15 18/17/15
f 7/8/18 9/10/18 42/47/18 5/6/18
f 9/10/18 11/12/18 45/48/18 42/47/18
f 11/12/18 13/14/18 48/49/18 45/48/18
f 13/14/18 15/16/18 17/18/18 48/49/18
f 5/6/18 42/47/18 43/50/18 3/4/18
f 42/47/18 45/48/18 46/51/18 43/50/18
f 45/48/18 48/49/18 49/52/18 46/51/18
f 48/49/18 17/18/18 19/20/18 49/52/18
f 3/4/18 43/50/18 44/53/18 1/1/18
f 43/50/18 46/51/18 47/54/18 44/53/18
f 46/51/18 49/52/18 50/55/18 47/54/18
f 49/52/18 19/20/18 21/22/18 50/55/18
f 1/35/18 44/56/18 29/30/18 31/33/18
f 44/56/18 47/57/18 27/28/18 29/30/18
f 47/57/18 50/58/18 25/26/18 27/28/18
f 50/58/18 21/22/18 23/24/18 25/26/18
