# Blender v3.3.0 Alpha OBJ File: 'buque.blend'
# www.blender.org
mtllib PortalBuqueFondo.mtl
o Cube.002
v -0.671966 0.625507 0.920750
v -0.864518 0.675917 0.920750
v -1.043947 0.823712 0.920750
v -1.198026 0.985187 0.920750
v -1.316256 1.135114 0.920750
v -1.390578 1.344657 0.920750
v -1.415928 1.727559 0.920750
v 0.594457 6.102733 0.920750
v 0.787008 6.052322 0.920750
v 0.966437 5.904527 0.920750
v 1.120517 5.724644 0.920750
v 1.238746 5.528696 0.920750
v 1.313068 5.273133 0.920750
v 1.338418 4.890230 0.920750
v -0.864518 6.052322 0.920750
v -0.671966 6.102733 0.920750
v -1.043947 5.904527 0.920750
v -1.198026 5.724644 0.920750
v -1.316256 5.528696 0.920750
v -1.390578 5.273133 0.920750
v -1.415928 4.890230 0.920750
v 0.787008 0.675917 0.920750
v 0.594457 0.625507 0.920750
v 0.966437 0.823712 0.920750
v 1.120517 0.985187 0.920750
v 1.238746 1.135114 0.920750
v 1.313068 1.344657 0.920750
v 1.338418 1.727559 0.920750
v -0.671966 0.625507 0.782855
v -0.864518 0.675917 0.782855
v -1.043947 0.823712 0.782855
v -1.198026 0.985187 0.782855
v -1.316256 1.135114 0.782855
v -1.390578 1.344657 0.782855
v -1.415928 1.727559 0.782855
v 0.594457 6.102733 0.782855
v 0.787008 6.052322 0.782855
v 0.966437 5.904527 0.782855
v 1.120517 5.724644 0.782855
v 1.238746 5.528696 0.782855
v 1.313068 5.273133 0.782855
v 1.338418 4.890230 0.782855
v -0.864518 6.052322 0.782855
v -0.671966 6.102733 0.782855
v -1.043947 5.904527 0.782855
v -1.198026 5.724644 0.782855
v -1.316256 5.528696 0.782855
v -1.390578 5.273133 0.782855
v -1.415928 4.890230 0.782855
v 0.787008 0.675917 0.782855
v 0.594457 0.625507 0.782855
v 0.966437 0.823712 0.782855
v 1.120517 0.985187 0.782855
v 1.238746 1.135114 0.782855
v 1.313068 1.344657 0.782855
v 1.338418 1.727559 0.782855
v -1.340212 1.672030 0.920750
v -1.219765 1.636745 0.920750
v -1.062797 1.588162 0.920750
v -0.880003 1.537973 0.920750
v -0.683841 1.520855 0.920750
v 0.606331 1.520855 0.920750
v 0.802493 1.537973 0.920750
v 0.985287 1.588162 0.920750
v 1.142256 1.636745 0.920750
v 1.262702 1.672030 0.920750
v -1.340212 4.992643 0.920750
v -1.219765 5.074812 0.920750
v -1.062797 5.142148 0.920750
v -0.880003 5.192337 0.920750
v -0.683841 5.209456 0.920750
v 0.606331 5.209456 0.920750
v 0.802493 5.192337 0.920750
v 0.985287 5.142148 0.920750
v 1.142256 5.074812 0.920750
v 1.262702 4.992643 0.920750
v -1.340212 1.672030 0.782855
v -1.219765 1.636745 0.782855
v -1.062797 1.588162 0.782855
v -0.880003 1.537973 0.782855
v -0.683841 1.520855 0.782855
v 0.606331 1.520855 0.782855
v 0.802493 1.537973 0.782855
v 0.985287 1.588162 0.782855
v 1.142256 1.636745 0.782855
v 1.262702 1.672030 0.782855
v -1.340212 4.992643 0.782855
v -1.219765 5.074812 0.782855
v -1.062797 5.142148 0.782855
v -0.880003 5.192337 0.782855
v -0.683841 5.209456 0.782855
v 0.606331 5.209456 0.782855
v 0.802493 5.192337 0.782855
v 0.985287 5.142148 0.782855
v 1.142256 5.074812 0.782855
v 1.262702 4.992643 0.782855
vt 0.000000 0.000000
vt 0.000000 0.000000
vt 0.000000 0.000000
vt 0.000000 0.000000
vt 0.000000 0.000000
vt 0.000000 0.000000
vt 0.000000 0.000000
vt 0.000000 0.000000
vt 0.000000 0.000000
vt 0.000000 0.000000
vt 0.000000 0.000000
vt 0.000000 0.000000
vt 0.000000 0.000000
vt 0.000000 0.000000
vt 0.000000 0.000000
vt 0.000000 0.000000
vt 0.000000 0.000000
vt 0.000000 0.000000
vt 0.000000 0.000000
vt 0.000000 0.000000
vt 0.000000 0.000000
vt 0.000000 0.000000
vt 0.000000 0.000000
vt 0.000000 0.000000
vt 0.000000 0.000000
vt 0.000000 0.000000
vt 0.000000 0.000000
vt 0.000000 0.000000
vt 0.000000 0.000000
vt 0.000000 0.000000
vt 0.000000 0.000000
vt 0.000000 0.000000
vt 0.000000 0.000000
vt 0.000000 0.000000
vt 0.000000 0.000000
vt 0.000000 0.000000
vt 0.000000 0.000000
vt 0.000000 0.000000
vt 0.000000 0.000000
vt 0.000000 0.000000
vt 0.000000 0.000000
vt 0.000000 0.000000
vt 0.000000 0.000000
vt 0.000000 0.000000
vt 0.000000 0.000000
vt 0.000000 0.000000
vt 0.000000 0.000000
vt 0.000000 0.000000
vt 0.000000 0.000000
vt 0.000000 0.000000
vt 0.000000 0.000000
vt 0.000000 0.000000
vt 0.000000 0.000000
vt 0.000000 0.000000
vt 0.000000 0.000000
vt 0.000000 0.000000
vt 0.000000 0.000000
vt 0.000000 0.000000
vt 0.000000 0.000000
vt 0.000000 0.000000
vt 0.000000 0.000000
vt 0.000000 0.000000
vt 0.000000 0.000000
vt 0.000000 0.000000
vt 0.000000 0.000000
vt 0.000000 0.000000
vt 0.000000 0.000000
vt 0.000000 0.000000
vt 0.000000 0.000000
vt 0.000000 0.000000
vt 0.000000 0.000000
vt 0.000000 0.000000
vt 0.000000 0.000000
vt 0.000000 0.000000
vt 0.000000 0.000000
vt 0.000000 0.000000
vt 0.000000 0.000000
vt 0.000000 0.000000
vt 0.000000 0.000000
vt 0.000000 0.000000
vt 0.000000 0.000000
vt 0.000000 0.000000
vt 0.000000 0.000000
vt 0.000000 0.000000
vt 0.000000 0.000000
vt 0.000000 0.000000
vt 0.000000 0.000000
vt 0.000000 0.000000
vt 0.000000 0.000000
vt 0.000000 0.000000
vt 0.000000 0.000000
vt 0.000000 0.000000
vt 0.000000 0.000000
vt 0.000000 0.000000
vt 0.000000 0.000000
vt 0.000000 0.000000
vn -0.9602 -0.2792 0.0000
vn -1.0000 0.0000 0.0000
vn -0.9978 -0.0661 0.0000
vn 0.0000 -1.0000 0.0000
vn 0.2533 -0.9674 0.0000
vn 0.0000 1.0000 0.0000
vn 0.6358 -0.7719 0.0000
vn 0.2533 0.9674 0.0000
vn 1.0000 0.0000 0.0000
vn 0.7595 -0.6505 0.0000
vn 0.6358 0.7719 0.0000
vn 0.8562 -0.5166 0.0000
vn 0.7235 0.6903 0.0000
vn 0.9602 -0.2792 0.0000
vn 0.7852 0.6192 0.0000
vn 0.9978 -0.0661 0.0000
vn 0.9425 0.3343 0.0000
vn -0.2533 0.9674 0.0000
vn 0.9978 0.0661 0.0000
vn -0.6358 0.7719 0.0000
vn -0.2533 -0.9674 0.0000
vn -0.7235 0.6903 0.0000
vn -0.6358 -0.7719 0.0000
vn -0.7852 0.6192 0.0000
vn -0.7595 -0.6505 0.0000
vn -0.9425 0.3343 0.0000
vn -0.8562 -0.5166 0.0000
vn -0.9978 0.0661 0.0000
vn 0.0000 0.0000 -1.0000
vn 0.0000 0.0000 1.0000
usemtl Material
s off
f 13/1/1 12/2/1 40/3/1 41/4/1
f 28/5/2 14/6/2 42/7/2 56/8/2
f 14/6/3 13/1/3 41/4/3 42/7/3
f 8/9/4 16/10/4 44/11/4 36/12/4
f 16/10/5 15/13/5 43/14/5 44/11/5
f 1/15/6 23/16/6 51/17/6 29/18/6
f 15/13/7 17/19/7 45/20/7 43/14/7
f 2/21/8 1/15/8 29/18/8 30/22/8
f 21/23/9 7/24/9 35/25/9 49/26/9
f 17/19/10 18/27/10 46/28/10 45/20/10
f 3/29/11 2/21/11 30/22/11 31/30/11
f 18/27/12 19/31/12 47/32/12 46/28/12
f 4/33/13 3/29/13 31/30/13 32/34/13
f 19/31/14 20/35/14 48/36/14 47/32/14
f 5/37/15 4/33/15 32/34/15 33/38/15
f 20/35/16 21/23/16 49/26/16 48/36/16
f 6/39/17 5/37/17 33/38/17 34/40/17
f 23/16/18 22/41/18 50/42/18 51/17/18
f 7/24/19 6/39/19 34/40/19 35/25/19
f 22/41/20 24/43/20 52/44/20 50/42/20
f 9/45/21 8/9/21 36/12/21 37/46/21
f 24/43/22 25/47/22 53/48/22 52/44/22
f 10/49/23 9/45/23 37/46/23 38/50/23
f 25/47/24 26/51/24 54/52/24 53/48/24
f 11/53/25 10/49/25 38/50/25 39/54/25
f 26/51/26 27/55/26 55/56/26 54/52/26
f 12/2/27 11/53/27 39/54/27 40/3/27
f 27/55/28 28/5/28 56/8/28 55/56/28
f 6/39/29 7/24/29 57/57/29 5/37/29
f 7/24/29 21/23/29 67/58/29 57/57/29
f 21/23/29 20/35/29 19/31/29 67/58/29
f 5/37/29 57/57/29 58/59/29 4/33/29
f 57/57/29 67/58/29 68/60/29 58/59/29
f 67/58/29 19/31/29 18/27/29 68/60/29
f 4/33/29 58/59/29 59/61/29 3/29/29
f 58/59/29 68/60/29 69/62/29 59/61/29
f 68/60/29 18/27/29 17/19/29 69/62/29
f 3/29/29 59/61/29 60/63/29 2/21/29
f 59/61/29 69/62/29 70/64/29 60/63/29
f 69/62/29 17/19/29 15/13/29 70/64/29
f 2/21/29 60/63/29 61/65/29 1/15/29
f 60/63/29 70/64/29 71/66/29 61/65/29
f 70/64/29 15/13/29 16/10/29 71/66/29
f 1/15/29 61/65/29 62/67/29 23/16/29
f 61/65/29 71/66/29 72/68/29 62/67/29
f 71/66/29 16/10/29 8/9/29 72/68/29
f 23/16/29 62/67/29 63/69/29 22/41/29
f 62/67/29 72/68/29 73/70/29 63/69/29
f 72/68/29 8/9/29 9/45/29 73/70/29
f 22/41/29 63/69/29 64/71/29 24/43/29
f 63/69/29 73/70/29 74/72/29 64/71/29
f 73/70/29 9/45/29 10/49/29 74/72/29
f 24/43/29 64/71/29 65/73/29 25/47/29
f 64/71/29 74/72/29 75/74/29 65/73/29
f 74/72/29 10/49/29 11/53/29 75/74/29
f 25/47/29 65/73/29 66/75/29 26/51/29
f 65/73/29 75/74/29 76/76/29 66/75/29
f 75/74/29 11/53/29 12/2/29 76/76/29
f 26/51/29 66/75/29 28/5/29 27/55/29
f 66/75/29 76/76/29 14/6/29 28/5/29
f 76/76/29 12/2/29 13/1/29 14/6/29
f 33/38/30 77/77/30 35/25/30 34/40/30
f 77/77/30 87/78/30 49/26/30 35/25/30
f 87/78/30 47/32/30 48/36/30 49/26/30
f 32/34/30 78/79/30 77/77/30 33/38/30
f 78/79/30 88/80/30 87/78/30 77/77/30
f 88/80/30 46/28/30 47/32/30 87/78/30
f 31/30/30 79/81/30 78/79/30 32/34/30
f 79/81/30 89/82/30 88/80/30 78/79/30
f 89/82/30 45/20/30 46/28/30 88/80/30
f 30/22/30 80/83/30 79/81/30 31/30/30
f 80/83/30 90/84/30 89/82/30 79/81/30
f 90/84/30 43/14/30 45/20/30 89/82/30
f 29/18/30 81/85/30 80/83/30 30/22/30
f 81/85/30 91/86/30 90/84/30 80/83/30
f 91/86/30 44/11/30 43/14/30 90/84/30
f 51/17/30 82/87/30 81/85/30 29/18/30
f 82/87/30 92/88/30 91/86/30 81/85/30
f 92/88/30 36/12/30 44/11/30 91/86/30
f 50/42/30 83/89/30 82/87/30 51/17/30
f 83/89/30 93/90/30 92/88/30 82/87/30
f 93/90/30 37/46/30 36/12/30 92/88/30
f 52/44/30 84/91/30 83/89/30 50/42/30
f 84/91/30 94/92/30 93/90/30 83/89/30
f 94/92/30 38/50/30 37/46/30 93/90/30
f 53/48/30 85/93/30 84/91/30 52/44/30
f 85/93/30 95/94/30 94/92/30 84/91/30
f 95/94/30 39/54/30 38/50/30 94/92/30
f 54/52/30 86/95/30 85/93/30 53/48/30
f 86/95/30 96/96/30 95/94/30 85/93/30
f 96/96/30 40/3/30 39/54/30 95/94/30
f 55/56/30 56/8/30 86/95/30 54/52/30
f 56/8/30 42/7/30 96/96/30 86/95/30
f 42/7/30 41/4/30 40/3/30 96/96/30
